<svg width="36" height="36" viewBox="0 0 36 36" fill="none" xmlns="http://www.w3.org/2000/svg">
<path d="M60.5503 6.36686C62.6875 6.36686 64.5623 6.78457 66.1749 7.62C67.8069 8.45543 69.06 9.65028 69.9343 11.2046C70.828 12.7394 71.2749 14.5269 71.2749 16.5669C71.2749 18.6069 70.828 20.3943 69.9343 21.9291C69.06 23.4446 67.8069 24.62 66.1749 25.4554C64.5623 26.2909 62.6875 26.7086 60.5503 26.7086H53.4395V6.36686H60.5503ZM60.4046 23.2406C62.5417 23.2406 64.1932 22.6577 65.3589 21.492C66.5246 20.3263 67.1075 18.6846 67.1075 16.5669C67.1075 14.4491 66.5246 12.7977 65.3589 11.6126C64.1932 10.408 62.5417 9.80571 60.4046 9.80571H57.5195V23.2406H60.4046Z" fill="white"/>
<path d="M74.737 18.5777C74.737 16.9457 75.0575 15.4983 75.6987 14.2354C76.3592 12.9726 77.2432 12.0011 78.3507 11.3211C79.4775 10.6411 80.7307 10.3011 82.1101 10.3011C83.3147 10.3011 84.3638 10.544 85.2575 11.0297C86.1707 11.5154 86.8992 12.1274 87.4432 12.8657V10.5634H91.5524V26.7086H87.4432V24.348C86.9187 25.1057 86.1901 25.7371 85.2575 26.2423C84.3444 26.728 83.2855 26.9709 82.081 26.9709C80.721 26.9709 79.4775 26.6211 78.3507 25.9217C77.2432 25.2223 76.3592 24.2411 75.6987 22.9783C75.0575 21.696 74.737 20.2291 74.737 18.5777ZM87.4432 18.636C87.4432 17.6451 87.249 16.8 86.8604 16.1006C86.4718 15.3817 85.9472 14.8377 85.2867 14.4686C84.6261 14.08 83.917 13.8857 83.1592 13.8857C82.4015 13.8857 81.7021 14.0703 81.061 14.4394C80.4198 14.8086 79.8952 15.3526 79.4872 16.0714C79.0987 16.7709 78.9044 17.6063 78.9044 18.5777C78.9044 19.5491 79.0987 20.404 79.4872 21.1423C79.8952 21.8611 80.4198 22.4149 81.061 22.8034C81.7215 23.192 82.421 23.3863 83.1592 23.3863C83.917 23.3863 84.6261 23.2017 85.2867 22.8326C85.9472 22.444 86.4718 21.9 86.8604 21.2006C87.249 20.4817 87.4432 19.6269 87.4432 18.636Z" fill="white"/>
<path d="M101.745 13.9149V21.7251C101.745 22.2691 101.871 22.6674 102.124 22.92C102.396 23.1531 102.842 23.2697 103.464 23.2697H105.358V26.7086H102.794C99.3549 26.7086 97.6355 25.0377 97.6355 21.696V13.9149H95.7121V10.5634H97.6355V6.57086H101.745V10.5634H105.358V13.9149H101.745Z" fill="white"/>
<path d="M108.701 18.5777C108.701 16.9457 109.021 15.4983 109.663 14.2354C110.323 12.9726 111.207 12.0011 112.315 11.3211C113.441 10.6411 114.695 10.3011 116.074 10.3011C117.279 10.3011 118.328 10.544 119.221 11.0297C120.135 11.5154 120.863 12.1274 121.407 12.8657V10.5634H125.516V26.7086H121.407V24.348C120.883 25.1057 120.154 25.7371 119.221 26.2423C118.308 26.728 117.249 26.9709 116.045 26.9709C114.685 26.9709 113.441 26.6211 112.315 25.9217C111.207 25.2223 110.323 24.2411 109.663 22.9783C109.021 21.696 108.701 20.2291 108.701 18.5777ZM121.407 18.636C121.407 17.6451 121.213 16.8 120.824 16.1006C120.436 15.3817 119.911 14.8377 119.251 14.4686C118.59 14.08 117.881 13.8857 117.123 13.8857C116.365 13.8857 115.666 14.0703 115.025 14.4394C114.384 14.8086 113.859 15.3526 113.451 16.0714C113.063 16.7709 112.868 17.6063 112.868 18.5777C112.868 19.5491 113.063 20.404 113.451 21.1423C113.859 21.8611 114.384 22.4149 115.025 22.8034C115.685 23.192 116.385 23.3863 117.123 23.3863C117.881 23.3863 118.59 23.2017 119.251 22.8326C119.911 22.444 120.436 21.9 120.824 21.2006C121.213 20.4817 121.407 19.6269 121.407 18.636Z" fill="white"/>
<path d="M135.038 12.8949C135.563 12.1566 136.282 11.5446 137.195 11.0589C138.127 10.5537 139.186 10.3011 140.371 10.3011C141.751 10.3011 142.994 10.6411 144.102 11.3211C145.229 12.0011 146.113 12.9726 146.754 14.2354C147.414 15.4789 147.745 16.9263 147.745 18.5777C147.745 20.2291 147.414 21.696 146.754 22.9783C146.113 24.2411 145.229 25.2223 144.102 25.9217C142.994 26.6211 141.751 26.9709 140.371 26.9709C139.186 26.9709 138.137 26.728 137.224 26.2423C136.33 25.7566 135.602 25.1446 135.038 24.4063V34.4023H130.958V10.5634H135.038V12.8949ZM143.577 18.5777C143.577 17.6063 143.373 16.7709 142.965 16.0714C142.577 15.3526 142.052 14.8086 141.391 14.4394C140.75 14.0703 140.051 13.8857 139.293 13.8857C138.555 13.8857 137.855 14.08 137.195 14.4686C136.554 14.8377 136.029 15.3817 135.621 16.1006C135.233 16.8194 135.038 17.6646 135.038 18.636C135.038 19.6074 135.233 20.4526 135.621 21.1714C136.029 21.8903 136.554 22.444 137.195 22.8326C137.855 23.2017 138.555 23.3863 139.293 23.3863C140.051 23.3863 140.75 23.192 141.391 22.8034C142.052 22.4149 142.577 21.8611 142.965 21.1423C143.373 20.4234 143.577 19.5686 143.577 18.5777Z" fill="white"/>
<path d="M151.117 18.5777C151.117 16.9457 151.438 15.4983 152.079 14.2354C152.74 12.9726 153.624 12.0011 154.731 11.3211C155.858 10.6411 157.111 10.3011 158.491 10.3011C159.695 10.3011 160.744 10.544 161.638 11.0297C162.551 11.5154 163.28 12.1274 163.824 12.8657V10.5634H167.933V26.7086H163.824V24.348C163.299 25.1057 162.571 25.7371 161.638 26.2423C160.725 26.728 159.666 26.9709 158.461 26.9709C157.101 26.9709 155.858 26.6211 154.731 25.9217C153.624 25.2223 152.74 24.2411 152.079 22.9783C151.438 21.696 151.117 20.2291 151.117 18.5777ZM163.824 18.636C163.824 17.6451 163.629 16.8 163.241 16.1006C162.852 15.3817 162.328 14.8377 161.667 14.4686C161.007 14.08 160.297 13.8857 159.54 13.8857C158.782 13.8857 158.083 14.0703 157.441 14.4394C156.8 14.8086 156.276 15.3526 155.868 16.0714C155.479 16.7709 155.285 17.6063 155.285 18.5777C155.285 19.5491 155.479 20.404 155.868 21.1423C156.276 21.8611 156.8 22.4149 157.441 22.8034C158.102 23.192 158.801 23.3863 159.54 23.3863C160.297 23.3863 161.007 23.2017 161.667 22.8326C162.328 22.444 162.852 21.9 163.241 21.2006C163.629 20.4817 163.824 19.6269 163.824 18.636Z" fill="white"/>
<path d="M177.455 5.14286V26.7086H173.375V5.14286H177.455Z" fill="white"/>
<path d="M60.5503 6.36686C62.6875 6.36686 64.5623 6.78457 66.1749 7.62C67.8069 8.45543 69.06 9.65028 69.9343 11.2046C70.828 12.7394 71.2749 14.5269 71.2749 16.5669C71.2749 18.6069 70.828 20.3943 69.9343 21.9291C69.06 23.4446 67.8069 24.62 66.1749 25.4554C64.5623 26.2909 62.6875 26.7086 60.5503 26.7086H53.4395V6.36686H60.5503ZM60.4046 23.2406C62.5417 23.2406 64.1932 22.6577 65.3589 21.492C66.5246 20.3263 67.1075 18.6846 67.1075 16.5669C67.1075 14.4491 66.5246 12.7977 65.3589 11.6126C64.1932 10.408 62.5417 9.80571 60.4046 9.80571H57.5195V23.2406H60.4046Z" stroke="black" stroke-width="2" mask="url(#path-1-outside-1_307_532)"/>
<path d="M74.737 18.5777C74.737 16.9457 75.0575 15.4983 75.6987 14.2354C76.3592 12.9726 77.2432 12.0011 78.3507 11.3211C79.4775 10.6411 80.7307 10.3011 82.1101 10.3011C83.3147 10.3011 84.3638 10.544 85.2575 11.0297C86.1707 11.5154 86.8992 12.1274 87.4432 12.8657V10.5634H91.5524V26.7086H87.4432V24.348C86.9187 25.1057 86.1901 25.7371 85.2575 26.2423C84.3444 26.728 83.2855 26.9709 82.081 26.9709C80.721 26.9709 79.4775 26.6211 78.3507 25.9217C77.2432 25.2223 76.3592 24.2411 75.6987 22.9783C75.0575 21.696 74.737 20.2291 74.737 18.5777ZM87.4432 18.636C87.4432 17.6451 87.249 16.8 86.8604 16.1006C86.4718 15.3817 85.9472 14.8377 85.2867 14.4686C84.6261 14.08 83.917 13.8857 83.1592 13.8857C82.4015 13.8857 81.7021 14.0703 81.061 14.4394C80.4198 14.8086 79.8952 15.3526 79.4872 16.0714C79.0987 16.7709 78.9044 17.6063 78.9044 18.5777C78.9044 19.5491 79.0987 20.404 79.4872 21.1423C79.8952 21.8611 80.4198 22.4149 81.061 22.8034C81.7215 23.192 82.421 23.3863 83.1592 23.3863C83.917 23.3863 84.6261 23.2017 85.2867 22.8326C85.9472 22.444 86.4718 21.9 86.8604 21.2006C87.249 20.4817 87.4432 19.6269 87.4432 18.636Z" stroke="black" stroke-width="2" mask="url(#path-1-outside-1_307_532)"/>
<path d="M101.745 13.9149V21.7251C101.745 22.2691 101.871 22.6674 102.124 22.92C102.396 23.1531 102.842 23.2697 103.464 23.2697H105.358V26.7086H102.794C99.3549 26.7086 97.6355 25.0377 97.6355 21.696V13.9149H95.7121V10.5634H97.6355V6.57086H101.745V10.5634H105.358V13.9149H101.745Z" stroke="black" stroke-width="2" mask="url(#path-1-outside-1_307_532)"/>
<path d="M108.701 18.5777C108.701 16.9457 109.021 15.4983 109.663 14.2354C110.323 12.9726 111.207 12.0011 112.315 11.3211C113.441 10.6411 114.695 10.3011 116.074 10.3011C117.279 10.3011 118.328 10.544 119.221 11.0297C120.135 11.5154 120.863 12.1274 121.407 12.8657V10.5634H125.516V26.7086H121.407V24.348C120.883 25.1057 120.154 25.7371 119.221 26.2423C118.308 26.728 117.249 26.9709 116.045 26.9709C114.685 26.9709 113.441 26.6211 112.315 25.9217C111.207 25.2223 110.323 24.2411 109.663 22.9783C109.021 21.696 108.701 20.2291 108.701 18.5777ZM121.407 18.636C121.407 17.6451 121.213 16.8 120.824 16.1006C120.436 15.3817 119.911 14.8377 119.251 14.4686C118.59 14.08 117.881 13.8857 117.123 13.8857C116.365 13.8857 115.666 14.0703 115.025 14.4394C114.384 14.8086 113.859 15.3526 113.451 16.0714C113.063 16.7709 112.868 17.6063 112.868 18.5777C112.868 19.5491 113.063 20.404 113.451 21.1423C113.859 21.8611 114.384 22.4149 115.025 22.8034C115.685 23.192 116.385 23.3863 117.123 23.3863C117.881 23.3863 118.59 23.2017 119.251 22.8326C119.911 22.444 120.436 21.9 120.824 21.2006C121.213 20.4817 121.407 19.6269 121.407 18.636Z" stroke="black" stroke-width="2" mask="url(#path-1-outside-1_307_532)"/>
<path d="M135.038 12.8949C135.563 12.1566 136.282 11.5446 137.195 11.0589C138.127 10.5537 139.186 10.3011 140.371 10.3011C141.751 10.3011 142.994 10.6411 144.102 11.3211C145.229 12.0011 146.113 12.9726 146.754 14.2354C147.414 15.4789 147.745 16.9263 147.745 18.5777C147.745 20.2291 147.414 21.696 146.754 22.9783C146.113 24.2411 145.229 25.2223 144.102 25.9217C142.994 26.6211 141.751 26.9709 140.371 26.9709C139.186 26.9709 138.137 26.728 137.224 26.2423C136.33 25.7566 135.602 25.1446 135.038 24.4063V34.4023H130.958V10.5634H135.038V12.8949ZM143.577 18.5777C143.577 17.6063 143.373 16.7709 142.965 16.0714C142.577 15.3526 142.052 14.8086 141.391 14.4394C140.75 14.0703 140.051 13.8857 139.293 13.8857C138.555 13.8857 137.855 14.08 137.195 14.4686C136.554 14.8377 136.029 15.3817 135.621 16.1006C135.233 16.8194 135.038 17.6646 135.038 18.636C135.038 19.6074 135.233 20.4526 135.621 21.1714C136.029 21.8903 136.554 22.444 137.195 22.8326C137.855 23.2017 138.555 23.3863 139.293 23.3863C140.051 23.3863 140.75 23.192 141.391 22.8034C142.052 22.4149 142.577 21.8611 142.965 21.1423C143.373 20.4234 143.577 19.5686 143.577 18.5777Z" stroke="black" stroke-width="2" mask="url(#path-1-outside-1_307_532)"/>
<path d="M151.117 18.5777C151.117 16.9457 151.438 15.4983 152.079 14.2354C152.74 12.9726 153.624 12.0011 154.731 11.3211C155.858 10.6411 157.111 10.3011 158.491 10.3011C159.695 10.3011 160.744 10.544 161.638 11.0297C162.551 11.5154 163.28 12.1274 163.824 12.8657V10.5634H167.933V26.7086H163.824V24.348C163.299 25.1057 162.571 25.7371 161.638 26.2423C160.725 26.728 159.666 26.9709 158.461 26.9709C157.101 26.9709 155.858 26.6211 154.731 25.9217C153.624 25.2223 152.74 24.2411 152.079 22.9783C151.438 21.696 151.117 20.2291 151.117 18.5777ZM163.824 18.636C163.824 17.6451 163.629 16.8 163.241 16.1006C162.852 15.3817 162.328 14.8377 161.667 14.4686C161.007 14.08 160.297 13.8857 159.54 13.8857C158.782 13.8857 158.083 14.0703 157.441 14.4394C156.8 14.8086 156.276 15.3526 155.868 16.0714C155.479 16.7709 155.285 17.6063 155.285 18.5777C155.285 19.5491 155.479 20.404 155.868 21.1423C156.276 21.8611 156.8 22.4149 157.441 22.8034C158.102 23.192 158.801 23.3863 159.54 23.3863C160.297 23.3863 161.007 23.2017 161.667 22.8326C162.328 22.444 162.852 21.9 163.241 21.2006C163.629 20.4817 163.824 19.6269 163.824 18.636Z" stroke="black" stroke-width="2" mask="url(#path-1-outside-1_307_532)"/>
<path d="M177.455 5.14286V26.7086H173.375V5.14286H177.455Z" stroke="black" stroke-width="2" mask="url(#path-1-outside-1_307_532)"/>
<mask id="path-2-inside-2_307_532" fill="white">
<path d="M0 9C0 4.02944 4.02944 0 9 0H27C31.9706 0 36 4.02944 36 9V27C36 31.9706 31.9706 36 27 36H14.4V28.8H25.2C27.1882 28.8 28.8 27.1882 28.8 25.2V10.8C28.8 8.81178 27.1882 7.2 25.2 7.2H10.8C8.81178 7.2 7.2 8.81177 7.2 10.8V21.6H0V9Z"/>
<path d="M0 28.8H7.2V36H3.6C1.61177 36 0 34.3882 0 32.4V28.8Z"/>
<path d="M14.4 15.84C14.4 15.0447 15.0447 14.4 15.84 14.4H20.16C20.9553 14.4 21.6 15.0447 21.6 15.84V20.16C21.6 20.9553 20.9553 21.6 20.16 21.6H14.4V15.84Z"/>
</mask>
<path d="M0 9C0 4.02944 4.02944 0 9 0H27C31.9706 0 36 4.02944 36 9V27C36 31.9706 31.9706 36 27 36H14.4V28.8H25.2C27.1882 28.8 28.8 27.1882 28.8 25.2V10.8C28.8 8.81178 27.1882 7.2 25.2 7.2H10.8C8.81178 7.2 7.2 8.81177 7.2 10.8V21.6H0V9Z" fill="white"/>
<path d="M0 28.8H7.2V36H3.6C1.61177 36 0 34.3882 0 32.4V28.8Z" fill="#FFCE34"/>
<path d="M14.4 15.84C14.4 15.0447 15.0447 14.4 15.84 14.4H20.16C20.9553 14.4 21.6 15.0447 21.6 15.84V20.16C21.6 20.9553 20.9553 21.6 20.16 21.6H14.4V15.84Z" fill="#FFCE34"/>
<path d="M14.4 36H13.4V37H14.4V36ZM14.4 28.8V27.8H13.4V28.8H14.4ZM7.2 21.6V22.6H8.2V21.6H7.2ZM0 21.6H-1V22.6H0V21.6ZM0 28.8V27.8H-1V28.8H0ZM7.2 28.8H8.2V27.8H7.2V28.8ZM7.2 36V37H8.2V36H7.2ZM14.4 21.6H13.4V22.6H14.4V21.6ZM9 -1C3.47715 -1 -1 3.47715 -1 9H1C1 4.58172 4.58172 1 9 1V-1ZM27 -1H9V1H27V-1ZM37 9C37 3.47715 32.5229 -1 27 -1V1C31.4183 1 35 4.58172 35 9H37ZM37 27V9H35V27H37ZM27 37C32.5229 37 37 32.5228 37 27H35C35 31.4183 31.4183 35 27 35V37ZM14.4 37H27V35H14.4V37ZM13.4 28.8V36H15.4V28.8H13.4ZM14.4 29.8H25.2V27.8H14.4V29.8ZM25.2 29.8C27.7405 29.8 29.8 27.7405 29.8 25.2H27.8C27.8 26.6359 26.6359 27.8 25.2 27.8V29.8ZM29.8 25.2V10.8H27.8V25.2H29.8ZM29.8 10.8C29.8 8.25949 27.7405 6.2 25.2 6.2V8.2C26.6359 8.2 27.8 9.36406 27.8 10.8H29.8ZM25.2 6.2H10.8V8.2H25.2V6.2ZM10.8 6.2C8.25949 6.2 6.2 8.25949 6.2 10.8H8.2C8.2 9.36406 9.36406 8.2 10.8 8.2V6.2ZM6.2 10.8V21.6H8.2V10.8H6.2ZM0 22.6H7.2V20.6H0V22.6ZM-1 9V21.6H1V9H-1ZM0 29.8H7.2V27.8H0V29.8ZM6.2 28.8V36H8.2V28.8H6.2ZM7.2 35H3.6V37H7.2V35ZM1 32.4V28.8H-1V32.4H1ZM3.6 35C2.16406 35 1 33.8359 1 32.4H-1C-1 34.9405 1.05949 37 3.6 37V35ZM15.84 15.4H20.16V13.4H15.84V15.4ZM20.6 15.84V20.16H22.6V15.84H20.6ZM20.16 20.6H14.4V22.6H20.16V20.6ZM15.4 21.6V15.84H13.4V21.6H15.4ZM20.6 20.16C20.6 20.403 20.403 20.6 20.16 20.6V22.6C21.5076 22.6 22.6 21.5076 22.6 20.16H20.6ZM20.16 15.4C20.403 15.4 20.6 15.597 20.6 15.84H22.6C22.6 14.4924 21.5076 13.4 20.16 13.4V15.4ZM15.84 13.4C14.4924 13.4 13.4 14.4924 13.4 15.84H15.4C15.4 15.597 15.597 15.4 15.84 15.4V13.4Z" fill="black" mask="url(#path-2-inside-2_307_532)"/>
</svg>
